<?xml version="1.0" encoding="utf-8"?>
<svg viewBox="0 0 500 500" xmlns="http://www.w3.org/2000/svg">
  <ellipse style="stroke: rgb(0, 0, 0); fill: rgb(82, 119, 179);" cx="249.825" cy="250.333" rx="237.988" ry="237.988"/>
  <path stroke-width="0" d="M 309.716 64.565 C 311.873 64.386 315.111 64.862 318.08 65.755 C 320.106 64.357 322.25 63.834 324.85 64.14 C 325.282 64.193 325.751 64.26 326.248 64.348 C 327.962 63.205 329.786 62.921 331.737 62.7 C 334 62.444 336.713 62.496 339.019 63.362 C 341.474 64.285 343.663 65.207 345.97 68.327 C 349.748 73.44 354.336 86.389 357.224 95.47 C 360.021 104.265 363.248 118.77 363.182 121.948 C 363.161 122.94 362.519 122.831 362.519 123.273 C 362.519 123.715 363.082 123.883 363.182 124.597 C 363.364 125.897 362.595 129.906 362.519 131.216 C 362.48 131.903 362.436 132.05 362.519 132.541 C 362.62 133.131 363.045 133.223 363.182 134.527 C 363.545 137.977 362.294 150.487 362.519 158.359 C 362.743 166.153 363.153 173.146 364.506 181.528 C 366.041 191.048 372.639 205.005 371.786 212.643 C 371.173 218.144 368.07 222.558 364.837 224.889 C 361.862 227.033 356.92 227.47 353.583 226.875 C 352.93 226.758 352.294 226.629 351.674 226.465 C 351.128 226.884 350.568 227.274 350.006 227.656 C 347.009 229.683 342.024 230.112 338.752 229.641 C 338.075 229.542 337.44 229.492 336.834 229.422 C 333.762 231.7 327.28 233.082 323.62 232.712 C 320.57 232.406 318.456 231.279 316.006 228.742 C 312.52 225.13 308.88 217.903 306.076 210.536 C 302.686 201.622 300.447 189.006 298.134 178.098 C 295.81 167.16 293.301 156.687 292.175 144.998 C 290.972 132.506 289.645 114.522 291.513 105.279 C 292.772 99.052 297.034 96.69 298.134 92.038 C 299.225 87.418 297.294 81.595 298.134 77.474 C 298.848 73.962 300.088 70.704 302.104 68.537 C 304.019 66.48 306.609 64.823 309.716 64.565 Z M 32.981 174.562 C 36.484 174.715 43.749 176.484 46.553 179.526 C 49.237 182.444 50.398 187.746 49.863 192.105 C 49.263 196.974 43.687 201.533 41.919 207.331 C 39.964 213.732 38.763 221.181 39.27 229.176 C 39.855 238.383 46.226 254.768 46.553 259.628 C 46.685 261.623 45.89 261.836 45.89 262.939 C 45.89 264.041 46.553 265.143 46.553 266.248 C 46.553 267.351 45.804 268.741 45.89 269.559 C 45.952 270.146 46.553 270.441 46.553 270.883 C 46.553 271.323 45.997 271.755 45.89 272.206 C 45.787 272.638 45.801 272.376 45.89 273.53 C 46.312 279.022 54.769 326.382 53.172 338.406 C 52.355 344.571 50.586 347.057 47.545 349.328 C 44.388 351.689 38.027 352.683 34.304 351.978 C 31.002 351.351 28.036 349.299 26.03 346.349 C 23.625 342.817 22.401 334.917 22.057 331.125 C 21.825 328.546 22.884 328.417 22.721 325.166 C 22.381 318.441 17.815 299.529 16.761 288.756 C 15.868 279.61 15.949 269.636 16.1 264.262 C 16.19 261.072 17.126 260.594 16.761 257.642 C 16.194 253.048 12.017 244.967 10.804 238.444 C 9.595 231.948 8.942 225.599 9.481 218.584 C 10.069 210.894 11.679 201.258 14.776 194.092 C 17.684 187.363 23.462 179.439 27.022 176.547 C 29.204 174.777 30.471 174.453 32.981 174.562 Z M 438.048 117.05 C 440.166 116.816 442.462 116.836 444.667 117.711 C 446.896 118.596 449.089 118.848 451.337 121.892 C 452.47 121.112 453.511 120.851 455.081 120.608 C 457.662 120.209 462.416 120.365 465.01 121.271 C 467.153 122.017 468.373 122.327 469.975 124.911 C 473.036 129.845 475.749 141.678 478.582 154.7 C 482.629 173.317 492.261 216.904 490.497 229.507 C 489.714 235.105 487.509 236.959 484.705 238.785 C 484.283 247.172 481.241 263.382 478.099 270.964 C 475.832 276.429 473.403 280.188 469.824 282.548 C 466.387 284.815 460.775 285.689 457.245 285.196 C 454.219 284.773 451.528 283.208 449.632 280.894 C 447.485 278.272 445.533 273.879 445.661 269.64 C 445.811 264.594 450.73 258.162 452.28 252.429 C 453.772 246.908 455.864 243.97 454.928 235.879 C 453.252 221.397 437.458 186.723 432.421 167.692 C 428.498 152.872 423.917 138.316 425.138 129.959 C 425.927 124.55 429.581 121.1 432.09 119.035 C 433.968 117.489 435.977 117.279 438.048 117.05 Z M 151.745 29.92 C 161.992 28.507 180.775 29.073 189.479 29.92 C 195.022 30.458 197.392 31.386 201.396 32.567 C 205.553 33.793 209.967 34.863 213.974 37.2 C 218.27 39.709 222.765 42.966 226.221 47.461 C 230.098 52.508 233.664 59.245 235.489 66.66 C 237.555 75.064 238.288 87.178 236.813 95.788 C 235.488 103.515 232.287 109.676 228.207 116.31 C 223.783 123.505 216.5 131.981 210.664 137.163 C 205.801 141.479 201.385 144.444 196.1 146.431 C 190.795 148.423 182.248 149.058 178.887 149.078 C 177.145 149.09 177.685 148.435 175.578 148.416 C 170.071 148.366 148.637 153.206 138.506 152.389 C 130.494 151.742 126.058 150.038 118.645 146.431 C 109.05 141.758 92.62 130.934 85.878 124.252 C 81.318 119.736 79.355 116.155 77.933 111.677 C 76.551 107.314 77.78 100.344 77.271 97.775 C 77.014 96.475 76.659 96.032 76.279 95.456 C 75.978 95.002 75.73 95.058 75.285 94.464 C 74.406 93.287 71.954 90.123 71.314 87.843 C 70.71 85.7 70.656 83.507 71.314 81.224 C 72.079 78.57 74.347 74.981 76.279 72.948 C 77.947 71.193 80.247 70.75 81.906 69.308 C 83.551 67.878 83.229 66.731 86.209 64.343 C 93.12 58.803 119.946 41.456 131.886 35.877 C 140.039 32.067 143.682 31.03 151.745 29.92 Z M 187.838 282.001 C 192.355 287.962 196.68 299.802 202.402 308.48 C 208.399 317.578 214.293 329.279 223.254 335.292 C 232.259 341.333 247.771 340.152 256.355 344.56 C 263.421 348.19 269.537 353.195 272.573 358.131 C 273.583 359.771 274.297 361.641 274.757 363.521 C 276.211 364.489 277.384 365.655 278.339 367.003 C 280.179 369.603 281.502 373.553 280.987 376.933 C 280.41 380.706 277.671 386.214 274.035 388.519 C 270.079 391.024 262.872 390.296 257.485 390.504 C 252.289 390.705 248.102 390.683 242.259 389.843 C 235.044 388.803 226.022 388.068 217.103 383.884 C 206.108 378.728 187.042 363.567 181.686 358.399 C 179.271 356.065 179.408 354.392 178.376 353.432 C 177.683 352.787 177.511 353.463 176.39 352.439 C 172.899 349.247 159.032 332.386 152.558 322.65 C 146.732 313.887 138.994 303.666 138.657 296.832 C 138.608 295.824 138.719 294.828 138.952 293.859 C 138.281 293.238 137.686 292.583 137.175 291.908 C 135.166 289.248 134.061 285.31 134.529 281.978 C 135.036 278.363 137.242 273.626 140.818 271.055 C 145.098 267.978 154.368 266.982 160.015 266.42 C 164.733 265.955 169.297 266.02 172.593 267.084 C 175.289 267.954 177.326 269.041 178.882 271.386 C 179.427 272.209 179.955 273.313 180.422 274.558 C 183.008 276.157 185.198 278.519 187.838 282.001 Z M 439.662 400.929 C 433.921 408.853 434.316 410.598 425.429 417.81 C 422.235 420.4 417.421 423.847 411.592 427.785 C 411.67 429.036 411.601 430.302 411.338 431.537 C 409.921 438.202 399.144 450.512 395.782 454.375 C 394.126 456.278 393.313 456.197 392.141 457.356 C 390.88 458.599 390.677 459.906 388.5 461.658 C 384.573 464.817 374.47 471.117 367.316 474.235 C 360.558 477.18 352.096 480.834 346.793 480.194 C 345.886 480.084 345.014 479.851 344.182 479.526 C 340.6 480.82 336.563 481.809 332.897 482.495 C 326.042 483.778 320.226 481.735 311.05 483.156 C 298.07 485.166 270.683 497.237 260.739 496.397 C 256.127 496.007 253.562 493.822 251.598 491.505 C 248.912 493.524 245.877 495.555 243.718 496.368 C 240.603 497.544 237.974 497.796 235.114 497.03 C 231.905 496.172 227.451 493.725 225.514 490.741 C 223.536 487.695 222.898 482.298 223.528 478.825 C 224.103 475.65 225.84 473.58 228.492 470.551 C 232.185 466.332 240.96 460.645 245.373 456.317 C 248.909 452.851 248.482 450.831 253.647 446.719 C 263.711 438.708 292.879 420.338 311.242 412.295 C 327.329 405.248 341.612 406.993 357.582 399.056 C 376.386 389.709 404.345 368.208 416.169 356.356 C 423.75 348.758 426.982 342.623 429.408 336.497 C 431.371 331.54 429.948 326.11 431.395 322.595 C 432.55 319.785 434.369 317.802 436.36 316.305 C 438.261 314.876 440.675 313.992 442.979 313.658 C 445.308 313.319 447.917 313.329 450.261 314.32 C 452.72 315.358 455.791 317.397 457.511 320.009 C 460.273 319.994 463.805 320.424 466.196 321.426 C 468.982 322.596 471.126 324.831 473.148 327.053 C 475.224 329.337 477.446 332.048 478.442 334.998 C 479.458 337.995 479.93 341.897 479.105 344.927 C 478.28 347.966 476.162 351.379 473.478 353.203 C 472.566 353.823 471.432 354.366 470.2 354.8 C 464.128 367.539 447.155 390.586 439.662 400.929 Z" style="stroke: rgb(129, 151, 57); stroke-width: 2px; fill: rgb(80, 177, 93);" stroke="rgb(255,0,0)"/>
  <path stroke-width="0" d="M 287.501 8.851 C 308.18 11.145 347.663 16.397 366.279 21.429 C 378.764 24.803 387.484 29.241 393.422 32.683 C 397.26 34.908 399.067 35.927 401.034 38.972 C 403.415 42.658 405.305 50.707 405.669 54.199 C 405.891 56.338 404.923 57.654 405.006 58.832 C 405.067 59.686 405.824 59.783 405.669 60.818 C 405.555 61.561 405.206 62.86 404.662 64.331 C 404.852 64.631 405.028 64.947 405.196 65.277 C 406.596 68.075 408.057 72.763 407.181 76.531 C 406.185 80.812 401.903 87.026 398.244 89.441 C 395.02 91.568 390.327 92.023 386.99 91.427 C 383.87 90.87 380.637 89.134 378.715 86.461 C 377.737 85.101 376.867 83.15 376.249 81.042 C 374.928 81.096 373.562 81.018 372.189 80.796 C 366.577 79.888 361.993 74.765 352.99 71.527 C 340.22 66.937 310.617 59.035 296.439 56.206 C 293.276 58.118 288.508 59.25 283.626 59.176 C 276.342 59.065 262.641 54.302 257.145 51.894 C 253.854 50.453 252.414 49.897 250.856 47.591 C 248.992 44.83 247.085 39.174 247.497 35.396 C 246.045 34.793 244.879 34.107 243.902 33.32 C 231.898 36.832 216.419 39.828 209.768 40.859 C 204.202 41.721 201.977 41.895 198.514 40.859 C 195.023 39.815 190.949 37.295 188.916 34.57 C 187.019 32.028 185.976 28.444 186.267 25.301 C 186.579 21.941 186.957 18.106 191.232 15.041 C 199.042 9.443 230.186 3.156 240.881 1.801 C 246.976 1.029 250.088 1.212 253.461 2.463 C 255.702 3.295 257.638 4.718 259.139 6.425 C 266.737 6.542 276.82 7.666 287.501 8.851 Z M 119.335 434.649 C 121.995 434.207 124.247 433.782 128.603 435.311 C 136.644 438.134 150.58 451.761 165.674 457.157 C 183.641 463.579 211.869 466.692 231.213 468.412 C 247.564 469.865 264.473 469.017 274.905 468.412 C 281.769 468.011 285.702 465.748 290.13 466.426 C 294.061 467.025 298.122 468.503 300.391 471.39 C 302.875 474.55 304.347 481.436 303.701 485.292 C 303.142 488.635 301.22 491.564 298.073 493.567 C 294.013 496.152 287.948 496.74 279.539 497.538 C 266.791 498.748 245.258 499.293 225.916 497.538 C 204.163 495.566 175.229 492.417 155.083 484.961 C 137.253 478.361 115.839 465.201 109.736 457.487 C 106.435 453.313 107.092 449.641 107.751 446.233 C 108.387 442.933 111.21 439.229 113.377 437.296 C 115.165 435.703 117.026 435.033 119.335 434.649 Z" style="stroke-width: 2px; fill: rgb(255, 255, 255); stroke: rgba(0, 0, 0, 0.39);"/>
</svg>